<?xml version="1.0" encoding="UTF-8"?>
<svg viewBox="0 0 216.8479 216.8829" xmlns="http://www.w3.org/2000/svg" xmlns:xlink="http://www.w3.org/1999/xlink">
 <defs>
  <filter id="o">
   <feGaussianBlur stdDeviation="2.59738"/>
  </filter>
  <filter id="p">
   <feGaussianBlur stdDeviation="3.01629"/>
  </filter>
  <filter id="n" x="-.11135" y="-.16817" width="1.2227" height="1.3363">
   <feGaussianBlur stdDeviation="2.16611"/>
  </filter>
  <filter id="m" x="-.15101" y="-.24047" width="1.302" height="1.481">
   <feGaussianBlur stdDeviation="2.16611"/>
  </filter>
  <radialGradient id="k" cx="480.08" cy="234.65" r="50.459" fy="205.55" gradientUnits="userSpaceOnUse">
   <stop stop-color="#fff900" offset="0"/>
   <stop stop-color="#ea8f00" offset="1"/>
  </radialGradient>
 </defs>
 <g transform="translate(-371.73 -126)">
  <g transform="matrix(.95874 0 0 .95874 19.811 9.6729)">
   <g id="l" transform="matrix(.99981 -.019502 .019502 .99981 -4.4861 9.4056)">
    <path d="m421.29 251.45c-16.195-0.53096-39.002-6.2932-49.466-22.965 25.859 5.7538 27.873-9.7161 47.77-10.513" fill="#ed8224" fill-opacity=".99994"/>
    <path d="m418.09 245.76c-11.999-1.4117-27.259-4.3368-38.907-14.777 20.727 4.8359 23.6-9.5906 38.841-10.984" fill="#efbe52" fill-opacity=".99696" filter="url(#n)"/>
    <path d="m418.41 240.05c-11.26-1.0471-16.135-2.4271-28.688-7.4942 14.594 0.73964 20.427-11.326 28.64-10.479" fill="#ff0" filter="url(#m)"/>
   </g>
   <use id="j" transform="matrix(.86785 .49682 -.49682 .86785 179.93 -207.58)" width="1052.3622" height="744.09448" xlink:href="#l"/>
   <use id="i" transform="matrix(.86593 .50016 -.50016 .86593 181.64 -208.73)" width="1052.3622" height="744.09448" xlink:href="#j"/>
   <use id="h" transform="matrix(.8641 .50333 -.50333 .8641 183.26 -209.82)" width="1052.3622" height="744.09448" xlink:href="#i"/>
   <use id="g" transform="matrix(.86153 .50771 -.50771 .86153 185.52 -211.33)" width="1052.3622" height="744.09448" xlink:href="#h"/>
   <use id="f" transform="matrix(.86329 .50471 -.50471 .86329 183.97 -210.3)" width="1052.3622" height="744.09448" xlink:href="#g"/>
   <use id="e" transform="matrix(.86783 .49687 -.49687 .86783 179.96 -207.6)" width="1052.3622" height="744.09448" xlink:href="#f"/>
   <use id="d" transform="matrix(.86656 .49907 -.49907 .86656 181.08 -208.36)" width="1052.3622" height="744.09448" xlink:href="#e"/>
   <use id="c" transform="matrix(.86743 .49756 -.49756 .86743 180.31 -207.84)" width="1052.3622" height="744.09448" xlink:href="#d"/>
   <use id="b" transform="matrix(.86784 .49685 -.49685 .86784 179.95 -207.59)" width="1052.3622" height="744.09448" xlink:href="#c"/>
   <use id="a" transform="matrix(.86696 .49837 -.49837 .86696 180.72 -208.12)" width="1052.3622" height="744.09448" xlink:href="#b"/>
   <use transform="matrix(.87057 .49205 -.49205 .87057 177.51 -205.93)" width="1052.3622" height="744.09448" xlink:href="#a"/>
   <path d="m480.07 184.19c27.85 0 50.466 22.617 50.466 50.466s-22.617 50.451-50.466 50.451-50.451-22.602-50.451-50.451 22.602-50.466 50.451-50.466z" fill="url(#k)" fill-opacity=".99994"/>
   <path d="m480.07 169.92c-35.735 0-64.737 29.002-64.737 64.737s29.002 64.737 64.737 64.737 64.737-29.002 64.737-64.737-29.002-64.737-64.737-64.737zm8.4e-4 15.164c27.356 0 49.571 22.216 49.571 49.571s-22.216 49.557-49.571 49.557-49.557-22.201-49.557-49.557 22.201-49.571 49.557-49.571z" fill="#ed7323" fill-opacity=".99994"/>
   <path d="m480.07 174.08c-33.442 0-60.583 27.141-60.583 60.583s27.141 60.583 60.583 60.583 60.583-27.141 60.583-60.583-27.141-60.583-60.583-60.583zm-5e-4 5.4536c30.423 0 55.13 24.707 55.13 55.13s-24.707 55.113-55.13 55.113-55.113-24.69-55.113-55.113 24.69-55.13 55.113-55.13z" fill="#f3d818" fill-opacity=".99994" filter="url(#p)"/>
   <path transform="matrix(.64858 0 0 .63567 644.72 -212.87)" d="m-155.9 708.69c0.67167-52.232-42.833-102.54-99.687-101.75-48.926 0.68141-96.24 43.697-96.24 94.766 1.6306-50.731 51.222-87.938 99.825-87.938 49.637 0 96.101 42.685 96.101 94.92zm-10.269 10.216c-7.0313 40.145-43.91 77.27-86.441 77.27-49.042 0-90.149-36.984-90.238-94.981-2.4734 57.536 34.884 99.559 90.847 99.926 53.514 0.35562 82.194-45.042 85.832-82.216z" fill="#fbef00" filter="url(#o)"/>
  </g>
 </g>
</svg>
